<svg width="301" height="158" viewBox="0 0 301 158" fill="none" xmlns="http://www.w3.org/2000/svg">
<g filter="url(#filter0_f_0_1)">
<path d="M80 18.5H248.5V105.5H52.5V46C52.5 30.8122 64.8122 18.5 80 18.5Z" stroke="#FF0000" stroke-width="5"/>
</g>
<g filter="url(#filter1_f_0_1)">
<path d="M80 18.5H248.5V105.5H52.5V46C52.5 30.8122 64.8122 18.5 80 18.5Z" stroke="#FF0000" stroke-width="5"/>
</g>
<g filter="url(#filter2_f_0_1)">
<path d="M80 18.5H248.5V105.5H52.5V46C52.5 30.8122 64.8122 18.5 80 18.5Z" stroke="#FF0000" stroke-width="5"/>
</g>
<g filter="url(#filter3_f_0_1)">
<path d="M80 18.5H248.5V105.5H52.5V46C52.5 30.8122 64.8122 18.5 80 18.5Z" stroke="#FFE1E1" stroke-width="5"/>
</g>
<path d="M80 18.5H248.5V105.5H52.5V46C52.5 30.8122 64.8122 18.5 80 18.5Z" stroke="#FFE1E1" stroke-width="5"/>
<g filter="url(#filter4_f_0_1)">
<path d="M78.77 75L84.56 67.02C83.82 67.32 83 67.47 82.1 67.47C80.86 67.47 79.71 67.16 78.65 66.54C77.61 65.92 76.78 65.09 76.16 64.05C75.54 62.99 75.23 61.84 75.23 60.6C75.23 59.36 75.54 58.21 76.16 57.15C76.78 56.09 77.61 55.26 78.65 54.66C79.71 54.04 80.86 53.73 82.1 53.73C83.34 53.73 84.48 54.04 85.52 54.66C86.58 55.26 87.42 56.09 88.04 57.15C88.66 58.21 88.97 59.36 88.97 60.6C88.97 62.1 88.53 63.45 87.65 64.65V64.68L80.12 75H78.77ZM76.31 60.6C76.31 61.64 76.57 62.6 77.09 63.48C77.61 64.36 78.31 65.06 79.19 65.58C80.09 66.1 81.06 66.36 82.1 66.36C83.14 66.36 84.1 66.1 84.98 65.58C85.88 65.06 86.59 64.36 87.11 63.48C87.63 62.6 87.89 61.64 87.89 60.6C87.89 59.56 87.63 58.6 87.11 57.72C86.59 56.82 85.88 56.11 84.98 55.59C84.1 55.07 83.14 54.81 82.1 54.81C81.06 54.81 80.09 55.07 79.19 55.59C78.31 56.11 77.61 56.82 77.09 57.72C76.57 58.6 76.31 59.56 76.31 60.6ZM100.977 75L106.767 67.02C106.027 67.32 105.207 67.47 104.307 67.47C103.067 67.47 101.917 67.16 100.857 66.54C99.817 65.92 98.987 65.09 98.367 64.05C97.747 62.99 97.437 61.84 97.437 60.6C97.437 59.36 97.747 58.21 98.367 57.15C98.987 56.09 99.817 55.26 100.857 54.66C101.917 54.04 103.067 53.73 104.307 53.73C105.547 53.73 106.687 54.04 107.727 54.66C108.787 55.26 109.627 56.09 110.247 57.15C110.867 58.21 111.177 59.36 111.177 60.6C111.177 62.1 110.737 63.45 109.857 64.65V64.68L102.327 75H100.977ZM98.517 60.6C98.517 61.64 98.777 62.6 99.297 63.48C99.817 64.36 100.517 65.06 101.397 65.58C102.297 66.1 103.267 66.36 104.307 66.36C105.347 66.36 106.307 66.1 107.187 65.58C108.087 65.06 108.797 64.36 109.317 63.48C109.837 62.6 110.097 61.64 110.097 60.6C110.097 59.56 109.837 58.6 109.317 57.72C108.797 56.82 108.087 56.11 107.187 55.59C106.307 55.07 105.347 54.81 104.307 54.81C103.267 54.81 102.297 55.07 101.397 55.59C100.517 56.11 99.817 56.82 99.297 57.72C98.777 58.6 98.517 59.56 98.517 60.6ZM118.384 74.97V54.09H119.554L134.134 68.28V54.09H135.244V74.97H118.384ZM155.501 54.12V55.23H149.261V73.89H155.501V75H141.971V73.89H148.181V55.23H141.971V54.12H155.501ZM178.278 70.71C177.738 72.09 176.758 73.23 175.338 74.13C173.918 75.01 172.398 75.45 170.778 75.45C169.218 75.45 167.778 75.06 166.458 74.28C165.138 73.5 164.088 72.43 163.308 71.07C162.548 69.69 162.168 68.18 162.168 66.54V62.34C162.168 60.74 162.548 59.28 163.308 57.96C164.088 56.64 165.128 55.6 166.428 54.84C167.748 54.06 169.198 53.67 170.778 53.67C172.078 53.67 173.268 53.89 174.348 54.33C175.428 54.75 176.348 55.37 177.108 56.19C177.728 56.87 178.228 57.63 178.608 58.47C179.008 59.31 179.208 60.16 179.208 61.02H178.128C178.108 60.28 177.918 59.55 177.558 58.83C177.218 58.11 176.778 57.46 176.238 56.88C174.898 55.48 173.078 54.78 170.778 54.78C169.398 54.78 168.128 55.12 166.968 55.8C165.828 56.46 164.928 57.37 164.268 58.53C163.608 59.67 163.278 60.94 163.278 62.34V66.54C163.278 68 163.608 69.33 164.268 70.53C164.948 71.71 165.858 72.64 166.998 73.32C168.158 74 169.418 74.34 170.778 74.34C172.158 74.34 173.418 74.01 174.558 73.35C175.718 72.67 176.628 71.76 177.288 70.62C177.948 69.46 178.278 68.2 178.278 66.84V65.79H170.778V64.68H179.388V75H178.278V70.71ZM185.095 75V54.12H186.205V63.99H200.065V54.12H201.175V75H200.065V65.1H186.205V75H185.095ZM223.772 54.12V55.23H215.882V75H214.802V55.23H206.912V54.12H223.772Z" fill="#FF0000"/>
</g>
<g filter="url(#filter5_f_0_1)">
<path d="M78.77 75L84.56 67.02C83.82 67.32 83 67.47 82.1 67.47C80.86 67.47 79.71 67.16 78.65 66.54C77.61 65.92 76.78 65.09 76.16 64.05C75.54 62.99 75.23 61.84 75.23 60.6C75.23 59.36 75.54 58.21 76.16 57.15C76.78 56.09 77.61 55.26 78.65 54.66C79.71 54.04 80.86 53.73 82.1 53.73C83.34 53.73 84.48 54.04 85.52 54.66C86.58 55.26 87.42 56.09 88.04 57.15C88.66 58.21 88.97 59.36 88.97 60.6C88.97 62.1 88.53 63.45 87.65 64.65V64.68L80.12 75H78.77ZM76.31 60.6C76.31 61.64 76.57 62.6 77.09 63.48C77.61 64.36 78.31 65.06 79.19 65.58C80.09 66.1 81.06 66.36 82.1 66.36C83.14 66.36 84.1 66.1 84.98 65.58C85.88 65.06 86.59 64.36 87.11 63.48C87.63 62.6 87.89 61.64 87.89 60.6C87.89 59.56 87.63 58.6 87.11 57.72C86.59 56.82 85.88 56.11 84.98 55.59C84.1 55.07 83.14 54.81 82.1 54.81C81.06 54.81 80.09 55.07 79.19 55.59C78.31 56.11 77.61 56.82 77.09 57.72C76.57 58.6 76.31 59.56 76.31 60.6ZM100.977 75L106.767 67.02C106.027 67.32 105.207 67.47 104.307 67.47C103.067 67.47 101.917 67.16 100.857 66.54C99.817 65.92 98.987 65.09 98.367 64.05C97.747 62.99 97.437 61.84 97.437 60.6C97.437 59.36 97.747 58.21 98.367 57.15C98.987 56.09 99.817 55.26 100.857 54.66C101.917 54.04 103.067 53.73 104.307 53.73C105.547 53.73 106.687 54.04 107.727 54.66C108.787 55.26 109.627 56.09 110.247 57.15C110.867 58.21 111.177 59.36 111.177 60.6C111.177 62.1 110.737 63.45 109.857 64.65V64.68L102.327 75H100.977ZM98.517 60.6C98.517 61.64 98.777 62.6 99.297 63.48C99.817 64.36 100.517 65.06 101.397 65.58C102.297 66.1 103.267 66.36 104.307 66.36C105.347 66.36 106.307 66.1 107.187 65.58C108.087 65.06 108.797 64.36 109.317 63.48C109.837 62.6 110.097 61.64 110.097 60.6C110.097 59.56 109.837 58.6 109.317 57.72C108.797 56.82 108.087 56.11 107.187 55.59C106.307 55.07 105.347 54.81 104.307 54.81C103.267 54.81 102.297 55.07 101.397 55.59C100.517 56.11 99.817 56.82 99.297 57.72C98.777 58.6 98.517 59.56 98.517 60.6ZM118.384 74.97V54.09H119.554L134.134 68.28V54.09H135.244V74.97H118.384ZM155.501 54.12V55.23H149.261V73.89H155.501V75H141.971V73.89H148.181V55.23H141.971V54.12H155.501ZM178.278 70.71C177.738 72.09 176.758 73.23 175.338 74.13C173.918 75.01 172.398 75.45 170.778 75.45C169.218 75.45 167.778 75.06 166.458 74.28C165.138 73.5 164.088 72.43 163.308 71.07C162.548 69.69 162.168 68.18 162.168 66.54V62.34C162.168 60.74 162.548 59.28 163.308 57.96C164.088 56.64 165.128 55.6 166.428 54.84C167.748 54.06 169.198 53.67 170.778 53.67C172.078 53.67 173.268 53.89 174.348 54.33C175.428 54.75 176.348 55.37 177.108 56.19C177.728 56.87 178.228 57.63 178.608 58.47C179.008 59.31 179.208 60.16 179.208 61.02H178.128C178.108 60.28 177.918 59.55 177.558 58.83C177.218 58.11 176.778 57.46 176.238 56.88C174.898 55.48 173.078 54.78 170.778 54.78C169.398 54.78 168.128 55.12 166.968 55.8C165.828 56.46 164.928 57.37 164.268 58.53C163.608 59.67 163.278 60.94 163.278 62.34V66.54C163.278 68 163.608 69.33 164.268 70.53C164.948 71.71 165.858 72.64 166.998 73.32C168.158 74 169.418 74.34 170.778 74.34C172.158 74.34 173.418 74.01 174.558 73.35C175.718 72.67 176.628 71.76 177.288 70.62C177.948 69.46 178.278 68.2 178.278 66.84V65.79H170.778V64.68H179.388V75H178.278V70.71ZM185.095 75V54.12H186.205V63.99H200.065V54.12H201.175V75H200.065V65.1H186.205V75H185.095ZM223.772 54.12V55.23H215.882V75H214.802V55.23H206.912V54.12H223.772Z" fill="#FF0000"/>
</g>
<g filter="url(#filter6_f_0_1)">
<path d="M78.77 75L84.56 67.02C83.82 67.32 83 67.47 82.1 67.47C80.86 67.47 79.71 67.16 78.65 66.54C77.61 65.92 76.78 65.09 76.16 64.05C75.54 62.99 75.23 61.84 75.23 60.6C75.23 59.36 75.54 58.21 76.16 57.15C76.78 56.09 77.61 55.26 78.65 54.66C79.71 54.04 80.86 53.73 82.1 53.73C83.34 53.73 84.48 54.04 85.52 54.66C86.58 55.26 87.42 56.09 88.04 57.15C88.66 58.21 88.97 59.36 88.97 60.6C88.97 62.1 88.53 63.45 87.65 64.65V64.68L80.12 75H78.77ZM76.31 60.6C76.31 61.64 76.57 62.6 77.09 63.48C77.61 64.36 78.31 65.06 79.19 65.58C80.09 66.1 81.06 66.36 82.1 66.36C83.14 66.36 84.1 66.1 84.98 65.58C85.88 65.06 86.59 64.36 87.11 63.48C87.63 62.6 87.89 61.64 87.89 60.6C87.89 59.56 87.63 58.6 87.11 57.72C86.59 56.82 85.88 56.11 84.98 55.59C84.1 55.07 83.14 54.81 82.1 54.81C81.06 54.81 80.09 55.07 79.19 55.59C78.31 56.11 77.61 56.82 77.09 57.72C76.57 58.6 76.31 59.56 76.31 60.6ZM100.977 75L106.767 67.02C106.027 67.32 105.207 67.47 104.307 67.47C103.067 67.47 101.917 67.16 100.857 66.54C99.817 65.92 98.987 65.09 98.367 64.05C97.747 62.99 97.437 61.84 97.437 60.6C97.437 59.36 97.747 58.21 98.367 57.15C98.987 56.09 99.817 55.26 100.857 54.66C101.917 54.04 103.067 53.73 104.307 53.73C105.547 53.73 106.687 54.04 107.727 54.66C108.787 55.26 109.627 56.09 110.247 57.15C110.867 58.21 111.177 59.36 111.177 60.6C111.177 62.1 110.737 63.45 109.857 64.65V64.68L102.327 75H100.977ZM98.517 60.6C98.517 61.64 98.777 62.6 99.297 63.48C99.817 64.36 100.517 65.06 101.397 65.58C102.297 66.1 103.267 66.36 104.307 66.36C105.347 66.36 106.307 66.1 107.187 65.58C108.087 65.06 108.797 64.36 109.317 63.48C109.837 62.6 110.097 61.64 110.097 60.6C110.097 59.56 109.837 58.6 109.317 57.72C108.797 56.82 108.087 56.11 107.187 55.59C106.307 55.07 105.347 54.81 104.307 54.81C103.267 54.81 102.297 55.07 101.397 55.59C100.517 56.11 99.817 56.82 99.297 57.72C98.777 58.6 98.517 59.56 98.517 60.6ZM118.384 74.97V54.09H119.554L134.134 68.28V54.09H135.244V74.97H118.384ZM155.501 54.12V55.23H149.261V73.89H155.501V75H141.971V73.89H148.181V55.23H141.971V54.12H155.501ZM178.278 70.71C177.738 72.09 176.758 73.23 175.338 74.13C173.918 75.01 172.398 75.45 170.778 75.45C169.218 75.45 167.778 75.06 166.458 74.28C165.138 73.5 164.088 72.43 163.308 71.07C162.548 69.69 162.168 68.18 162.168 66.54V62.34C162.168 60.74 162.548 59.28 163.308 57.96C164.088 56.64 165.128 55.6 166.428 54.84C167.748 54.06 169.198 53.67 170.778 53.67C172.078 53.67 173.268 53.89 174.348 54.33C175.428 54.75 176.348 55.37 177.108 56.19C177.728 56.87 178.228 57.63 178.608 58.47C179.008 59.31 179.208 60.16 179.208 61.02H178.128C178.108 60.28 177.918 59.55 177.558 58.83C177.218 58.11 176.778 57.46 176.238 56.88C174.898 55.48 173.078 54.78 170.778 54.78C169.398 54.78 168.128 55.12 166.968 55.8C165.828 56.46 164.928 57.37 164.268 58.53C163.608 59.67 163.278 60.94 163.278 62.34V66.54C163.278 68 163.608 69.33 164.268 70.53C164.948 71.71 165.858 72.64 166.998 73.32C168.158 74 169.418 74.34 170.778 74.34C172.158 74.34 173.418 74.01 174.558 73.35C175.718 72.67 176.628 71.76 177.288 70.62C177.948 69.46 178.278 68.2 178.278 66.84V65.79H170.778V64.68H179.388V75H178.278V70.71ZM185.095 75V54.12H186.205V63.99H200.065V54.12H201.175V75H200.065V65.1H186.205V75H185.095ZM223.772 54.12V55.23H215.882V75H214.802V55.23H206.912V54.12H223.772Z" fill="#FF0000"/>
</g>
<g filter="url(#filter7_f_0_1)">
<path d="M78.77 75L84.56 67.02C83.82 67.32 83 67.47 82.1 67.47C80.86 67.47 79.71 67.16 78.65 66.54C77.61 65.92 76.78 65.09 76.16 64.05C75.54 62.99 75.23 61.84 75.23 60.6C75.23 59.36 75.54 58.21 76.16 57.15C76.78 56.09 77.61 55.26 78.65 54.66C79.71 54.04 80.86 53.73 82.1 53.73C83.34 53.73 84.48 54.04 85.52 54.66C86.58 55.26 87.42 56.09 88.04 57.15C88.66 58.21 88.97 59.36 88.97 60.6C88.97 62.1 88.53 63.45 87.65 64.65V64.68L80.12 75H78.77ZM76.31 60.6C76.31 61.64 76.57 62.6 77.09 63.48C77.61 64.36 78.31 65.06 79.19 65.58C80.09 66.1 81.06 66.36 82.1 66.36C83.14 66.36 84.1 66.1 84.98 65.58C85.88 65.06 86.59 64.36 87.11 63.48C87.63 62.6 87.89 61.64 87.89 60.6C87.89 59.56 87.63 58.6 87.11 57.72C86.59 56.82 85.88 56.11 84.98 55.59C84.1 55.07 83.14 54.81 82.1 54.81C81.06 54.81 80.09 55.07 79.19 55.59C78.31 56.11 77.61 56.82 77.09 57.72C76.57 58.6 76.31 59.56 76.31 60.6ZM100.977 75L106.767 67.02C106.027 67.32 105.207 67.47 104.307 67.47C103.067 67.47 101.917 67.16 100.857 66.54C99.817 65.92 98.987 65.09 98.367 64.05C97.747 62.99 97.437 61.84 97.437 60.6C97.437 59.36 97.747 58.21 98.367 57.15C98.987 56.09 99.817 55.26 100.857 54.66C101.917 54.04 103.067 53.73 104.307 53.73C105.547 53.73 106.687 54.04 107.727 54.66C108.787 55.26 109.627 56.09 110.247 57.15C110.867 58.21 111.177 59.36 111.177 60.6C111.177 62.1 110.737 63.45 109.857 64.65V64.68L102.327 75H100.977ZM98.517 60.6C98.517 61.64 98.777 62.6 99.297 63.48C99.817 64.36 100.517 65.06 101.397 65.58C102.297 66π.1 103.267 66.36 104.307 66.36C105.347 66.36 106.307 66.1 107.187 65.58C108.087 65.06 108.797 64.36 109.317 63.48C109.837 62.6 110.097 61.64 110.097 60.6C110.097 59.56 109.837 58.6 109.317 57.72C108.797 56.82 108.087 56.11 107.187 55.59C106.307 55.07 105.347 54.81 104.307 54.81C103.267 54.81 102.297 55.07 101.397 55.59C100.517 56.11 99.817 56.82 99.297 57.72C98.777 58.6 98.517 59.56 98.517 60.6ZM118.384 74.97V54.09H119.554L134.134 68.28V54.09H135.244V74.97H118.384ZM155.501 54.12V55.23H149.261V73.89H155.501V75H141.971V73.89H148.181V55.23H141.971V54.12H155.501ZM178.278 70.71C177.738 72.09 176.758 73.23 175.338 74.13C173.918 75.01 172.398 75.45 170.778 75.45C169.218 75.45 167.778 75.06 166.458 74.28C165.138 73.5 164.088 72.43 163.308 71.07C162.548 69.69 162.168 68.18 162.168 66.54V62.34C162.168 60.74 162.548 59.28 163.308 57.96C164.088 56.64 165.128 55.6 166.428 54.84C167.748 54.06 169.198 53.67 170.778 53.67C172.078 53.67 173.268 53.89 174.348 54.33C175.428 54.75 176.348 55.37 177.108 56.19C177.728 56.87 178.228 57.63 178.608 58.47C179.008 59.31 179.208 60.16 179.208 61.02H178.128C178.108 60.28 177.918 59.55 177.558 58.83C177.218 58.11 176.778 57.46 176.238 56.88C174.898 55.48 173.078 54.78 170.778 54.78C169.398 54.78 168.128 55.12 166.968 55.8C165.828 56.46 164.928 57.37 164.268 58.53C163.608 59.67 163.278 60.94 163.278 62.34V66.54C163.278 68 163.608 69.33 164.268 70.53C164.948 71.71 165.858 72.64 166.998 73.32C168.158 74 169.418 74.34 170.778 74.34C172.158 74.34 173.418 74.01 174.558 73.35C175.718 72.67 176.628 71.76 177.288 70.62C177.948 69.46 178.278 68.2 178.278 66.84V65.79H170.778V64.68H179.388V75H178.278V70.71ZM185.095 75V54.12H186.205V63.99H200.065V54.12H201.175V75H200.065V65.1H186.205V75H185.095ZM223.772 54.12V55.23H215.882V75H214.802V55.23H206.912V54.12H223.772Z" fill="#FF0000"/>
</g>
<path d="M78.77 75L84.56 67.02C83.82 67.32 83 67.47 82.1 67.47C80.86 67.47 79.71 67.16 78.65 66.54C77.61 65.92 76.78 65.09 76.16 64.05C75.54 62.99 75.23 61.84 75.23 60.6C75.23 59.36 75.54 58.21 76.16 57.15C76.78 56.09 77.61 55.26 78.65 54.66C79.71 54.04 80.86 53.73 82.1 53.73C83.34 53.73 84.48 54.04 85.52 54.66C86.58 55.26 87.42 56.09 88.04 57.15C88.66 58.21 88.97 59.36 88.97 60.6C88.97 62.1 88.53 63.45 87.65 64.65V64.68L80.12 75H78.77ZM76.31 60.6C76.31 61.64 76.57 62.6 77.09 63.48C77.61 64.36 78.31 65.06 79.19 65.58C80.09 66.1 81.06 66.36 82.1 66.36C83.14 66.36 84.1 66.1 84.98 65.58C85.88 65.06 86.59 64.36 87.11 63.48C87.63 62.6 87.89 61.64 87.89 60.6C87.89 59.56 87.63 58.6 87.11 57.72C86.59 56.82 85.88 56.11 84.98 55.59C84.1 55.07 83.14 54.81 82.1 54.81C81.06 54.81 80.09 55.07 79.19 55.59C78.31 56.11 77.61 56.82 77.09 57.72C76.57 58.6 76.31 59.56 76.31 60.6ZM100.977 75L106.767 67.02C106.027 67.32 105.207 67.47 104.307 67.47C103.067 67.47 101.917 67.16 100.857 66.54C99.817 65.92 98.987 65.09 98.367 64.05C97.747 62.99 97.437 61.84 97.437 60.6C97.437 59.36 97.747 58.21 98.367 57.15C98.987 56.09 99.817 55.26 100.857 54.66C101.917 54.04 103.067 53.73 104.307 53.73C105.547 53.73 106.687 54.04 107.727 54.66C108.787 55.26 109.627 56.09 110.247 57.15C110.867 58.21 111.177 59.36 111.177 60.6C111.177 62.1 110.737 63.45 109.857 64.65V64.68L102.327 75H100.977ZM98.517 60.6C98.517 61.64 98.777 62.6 99.297 63.48C99.817 64.36 100.517 65.06 101.397 65.58C102.297 66.1 103.267 66.36 104.307 66.36C105.347 66.36 106.307 66.1 107.187 65.58C108.087 65.06 108.797 64.36 109.317 63.48C109.837 62.6 110.097 61.64 110.097 60.6C110.097 59.56 109.837 58.6 109.317 57.72C108.797 56.82 108.087 56.11 107.187 55.59C106.307 55.07 105.347 54.81 104.307 54.81C103.267 54.81 102.297 55.07 101.397 55.59C100.517 56.11 99.817 56.82 99.297 57.72C98.777 58.6 98.517 59.56 98.517 60.6ZM118.384 74.97V54.09H119.554L134.134 68.28V54.09H135.244V74.97H118.384ZM155.501 54.12V55.23H149.261V73.89H155.501V75H141.971V73.89H148.181V55.23H141.971V54.12H155.501ZM178.278 70.71C177.738 72.09 176.758 73.23 175.338 74.13C173.918 75.01 172.398 75.45 170.778 75.45C169.218 75.45 167.778 75.06 166.458 74.28C165.138 73.5 164.088 72.43 163.308 71.07C162.548 69.69 162.168 68.18 162.168 66.54V62.34C162.168 60.74 162.548 59.28 163.308 57.96C164.088 56.64 165.128 55.6 166.428 54.84C167.748 54.06 169.198 53.67 170.778 53.67C172.078 53.67 173.268 53.89 174.348 54.33C175.428 54.75 176.348 55.37 177.108 56.19C177.728 56.87 178.228 57.63 178.608 58.47C179.008 59.31 179.208 60.16 179.208 61.02H178.128C178.108 60.28 177.918 59.55 177.558 58.83C177.218 58.11 176.778 57.46 176.238 56.88C174.898 55.48 173.078 54.78 170.778 54.78C169.398 54.78 168.128 55.12 166.968 55.8C165.828 56.46 164.928 57.37 164.268 58.53C163.608 59.67 163.278 60.94 163.278 62.34V66.54C163.278 68 163.608 69.33 164.268 70.53C164.948 71.71 165.858 72.64 166.998 73.32C168.158 74 169.418 74.34 170.778 74.34C172.158 74.34 173.418 74.01 174.558 73.35C175.718 72.67 176.628 71.76 177.288 70.62C177.948 69.46 178.278 68.2 178.278 66.84V65.79H170.778V64.68H179.388V75H178.278V70.71ZM185.095 75V54.12H186.205V63.99H200.065V54.12H201.175V75H200.065V65.1H186.205V75H185.095ZM223.772 54.12V55.23H215.882V75H214.802V55.23H206.912V54.12H223.772Z" fill="#FF8080"/>
<defs>
<filter id="filter0_f_0_1" x="0" y="-34" width="301" height="192" filterUnits="userSpaceOnUse" color-interpolation-filters="sRGB">
<feFlood flood-opacity="0" result="BackgroundImageFix"/>
<feBlend mode="normal" in="SourceGraphic" in2="BackgroundImageFix" result="shape"/>
<feGaussianBlur stdDeviation="25" result="effect1_foregroundBlur_0_1"/>
</filter>
<filter id="filter1_f_0_1" x="25" y="-9" width="251" height="142" filterUnits="userSpaceOnUse" color-interpolation-filters="sRGB">
<feFlood flood-opacity="0" result="BackgroundImageFix"/>
<feBlend mode="normal" in="SourceGraphic" in2="BackgroundImageFix" result="shape"/>
<feGaussianBlur stdDeviation="12.5" result="effect1_foregroundBlur_0_1"/>
</filter>
<filter id="filter2_f_0_1" x="35" y="1" width="231" height="122" filterUnits="userSpaceOnUse" color-interpolation-filters="sRGB">
<feFlood flood-opacity="0" result="BackgroundImageFix"/>
<feBlend mode="normal" in="SourceGraphic" in2="BackgroundImageFix" result="shape"/>
<feGaussianBlur stdDeviation="7.5" result="effect1_foregroundBlur_0_1"/>
</filter>
<filter id="filter3_f_0_1" x="40" y="6" width="221" height="112" filterUnits="userSpaceOnUse" color-interpolation-filters="sRGB">
<feFlood flood-opacity="0" result="BackgroundImageFix"/>
<feBlend mode="normal" in="SourceGraphic" in2="BackgroundImageFix" result="shape"/>
<feGaussianBlur stdDeviation="5" result="effect1_foregroundBlur_0_1"/>
</filter>
<filter id="filter4_f_0_1" x="25.23" y="3.67" width="248.542" height="121.78" filterUnits="userSpaceOnUse" color-interpolation-filters="sRGB">
<feFlood flood-opacity="0" result="BackgroundImageFix"/>
<feBlend mode="normal" in="SourceGraphic" in2="BackgroundImageFix" result="shape"/>
<feGaussianBlur stdDeviation="25" result="effect1_foregroundBlur_0_1"/>
</filter>
<filter id="filter5_f_0_1" x="50.23" y="28.67" width="198.542" height="71.78" filterUnits="userSpaceOnUse" color-interpolation-filters="sRGB">
<feFlood flood-opacity="0" result="BackgroundImageFix"/>
<feBlend mode="normal" in="SourceGraphic" in2="BackgroundImageFix" result="shape"/>
<feGaussianBlur stdDeviation="12.5" result="effect1_foregroundBlur_0_1"/>
</filter>
<filter id="filter6_f_0_1" x="60.23" y="38.67" width="178.542" height="51.78" filterUnits="userSpaceOnUse" color-interpolation-filters="sRGB">
<feFlood flood-opacity="0" result="BackgroundImageFix"/>
<feBlend mode="normal" in="SourceGraphic" in2="BackgroundImageFix" result="shape"/>
<feGaussianBlur stdDeviation="7.5" result="effect1_foregroundBlur_0_1"/>
</filter>
<filter id="filter7_f_0_1" x="65.23" y="43.67" width="168.542" height="41.78" filterUnits="userSpaceOnUse" color-interpolation-filters="sRGB">
<feFlood flood-opacity="0" result="BackgroundImageFix"/>
<feBlend mode="normal" in="SourceGraphic" in2="BackgroundImageFix" result="shape"/>
<feGaussianBlur stdDeviation="5" result="effect1_foregroundBlur_0_1"/>
</filter>
</defs>
</svg>
